<?xml version="1.0" encoding="utf-8"?>
<!-- Generator: Adobe Illustrator 25.2.1, SVG Export Plug-In . SVG Version: 6.00 Build 0)  -->
<svg version="1.1" id="Layer_1" xmlns="http://www.w3.org/2000/svg" xmlns:xlink="http://www.w3.org/1999/xlink" x="0px" y="0px"
	 viewBox="0 0 777 777" style="enable-background:new 0 0 777 777;" xml:space="preserve">
<style type="text/css">
	.st0{opacity:0.96;}
	.st1{fill:#F37268;}
	.st2{fill:#BAB29B;}
</style>
<g>
	<g>
		<path d="M97.67,547.92l-0.6,0.29c-1.86-3.87-10.33-3.77-10.33-3.77l-14.89-0.16l-11.39,5.48c-1.24,0.6-1.87,1.07-2.43,2.02
			l0.89-7.12l8.99-4.32l13.62-18.53c0.21-0.27,1.79-2.17,0.62-4.61l0.6-0.29l5.59,11.62l-0.6,0.29c-0.71-1.48-1.95-3.94-3.38-2.18
			l-12.36,17.01l14.66,0.16c0,0,8.28-0.01,5.27-6.28l0.6-0.29L97.67,547.92z"/>
		<path d="M106.28,595.35c-8.85,5.82-20.47,3.79-25.56-3.94c-5.09-7.73-2.35-19.21,6.5-25.03c8.85-5.82,20.47-3.79,25.56,3.95
			C117.86,578.06,115.12,589.53,106.28,595.35z M102.95,589.83c8.38-5.51,12.92-13.58,9.27-19.14c-3.63-5.51-12.87-4.58-21.25,0.93
			s-13.32,13.91-9.7,19.42C84.93,596.6,94.57,595.34,102.95,589.83z"/>
		<path d="M150.01,618.99l-0.54,0.47c-1.48-1.69-5.35-3.54-9.66,0.24l-10.38,9.11c-8.93,7.9-14.27,8.17-20.17,1.44
			c-7.42-8.46-2.17-15.11,2.26-18.99l15.61-13.7c1.04-0.91,1.51-1.53,1.8-2.6l1.06,7.1l-9.11,8c-4.04,3.54-8.12,7.26-8.91,8.23
			c-1.88,2.2-3.32,4.82-2.57,7.77c0.29,1.18,0.87,2.16,1.68,3.08c7.46,8.5,14.66,2.04,17.92-0.82l10.42-9.14
			c4.38-3.84,3.04-7.7,1.46-9.51l0.54-0.47L150.01,618.99z"/>
		<path d="M160.47,677.75l-0.43,0.5l-6.43-5.54c-4.34-3.74,8.31-16,2.24-21.57l-1.55-1.34l-9.62,11.16
			c-0.9,1.05-1.29,1.73-1.42,2.83l-2.07-6.92l19-22.05c2.5-2.91-0.2-5.1-0.93-5.74l0.43-0.5l10.77,9.28
			c3.29,2.84,9.52,9.41,3.77,16.08c-3.51,4.07-8.39,3.24-11.19,2.17c-1.38-0.51-2.48-1.12-3.74-2.08c5,4.31,1.86,11.33-0.53,17.71
			C157.5,674.92,159.11,676.58,160.47,677.75z M169.53,649.9c3.37-3.91,4.79-7.83,0.48-11.54c-0.66-0.57-3.37-2.91-5.78-0.12
			l-9.52,11.05l3.41,2.94C158.56,652.61,163.82,656.53,169.53,649.9z"/>
		<path d="M230.81,710.34c-2.56,4.72-7.02,5.34-10.37,4.98c-2.07-0.25-4.11-0.89-5.96-1.89l-14.17-7.67l0.32-0.58
			c1.71,0.93,4.13,1.94,5.95-1.43l13.36-24.7c1.92-3.55-0.81-4.86-2.06-5.54l0.32-0.58l13.27,7.18c0,0,9.87,4.99,5.73,12.64
			c-2.97,5.49-9.1,4.79-12.28,3.88C227.25,698.12,234.56,703.41,230.81,710.34z M224.88,708.3c4.6-8.5-2.42-12.19-3.19-12.6
			l-3.65-1.97l-6.79,12.55c-2.02,3.73,0.91,5.09,0.91,5.09S220.5,716.4,224.88,708.3z M224.64,681.53l-6.25,11.57l3.64,1.97
			c1.89,1.02,6.11,1.39,9.25-4.42c4.28-7.92-1.83-10.82-1.83-10.82S226.52,678.06,224.64,681.53z"/>
		<path d="M273.63,738.43l-0.24,0.62l-7.94-3.01c-5.36-2.03,2.34-17.88-5.27-21.04l-1.91-0.72l-5.22,13.78
			c-0.49,1.29-0.62,2.06-0.37,3.14l-4.32-5.79l10.31-27.22c1.36-3.59-1.93-4.73-2.84-5.07l0.24-0.62l13.3,5.04
			c4.07,1.54,12.16,5.59,9.05,13.82c-1.9,5.02-6.78,5.91-9.77,5.87c-1.47-0.01-2.71-0.21-4.23-0.67c6.17,2.34,5.62,10.01,5.56,16.82
			C269.88,736.79,271.96,737.79,273.63,738.43z M272.63,709.16c1.83-4.83,1.82-9-3.49-11c-0.81-0.31-4.16-1.58-5.47,1.87
			l-5.16,13.64l4.21,1.6C263.24,715.46,269.53,717.34,272.63,709.16z"/>
		<path d="M327.23,751.81l-0.14,0.65l-12.64-2.79l0.14-0.65c2.65,0.58,4.29-0.94,3.99-3.83l-1.44-9.12l-12.84-2.84l-2.67,4.02
			c-4.33,6.33,0.12,8.93,2.47,9.45l-0.14,0.65l-12.44-2.75l0.14-0.65c3.85,0.85,6.23-2.82,7.98-5.31
			c0.54-0.77,14.58-21.4,14.43-21.91l-0.89-4.02c-0.21-0.73-0.57-1.44-1.2-1.94l6.77,2.81c0,0,5.29,32.5,5.34,32.72
			C324.97,750.69,325.28,751.38,327.23,751.81z M317.06,735.26l-2.67-17.09l-9.67,14.37L317.06,735.26z"/>
		<path d="M385.52,720.32l-0.05,0.72c-2.3-0.15-6.34,1.27-6.72,7.04l-1.92,29.14l-1.74-0.11l-20.18-32.24l-1.49,22.61
			c-0.38,5.77,3.44,7.71,5.74,7.86l-0.05,0.71l-13.12-0.86l0.05-0.71c2.45,0.16,6.33-1.12,6.71-6.99l1.55-23.53l-1.11-1.82
			c0,0-1.94-3.21-4.65-3.38l0.06-0.87l8.98,0.59l19.2,30.02l1.35-20.52c0.39-5.87-3.39-7.66-5.84-7.82l0.05-0.71L385.52,720.32z"/>
		<path d="M434.31,735.46c1.56,18.71-11.36,20.15-18.34,20.73l-13.87,1.16l-0.05-0.66c2.55-0.21,4.5-1.4,4.26-4.31l-2.36-28.24
			c-0.2-2.4-1.49-3.67-4.85-3.39l-0.06-0.66l16.67-1.39c0.97-0.08,1.94-0.11,2.92-0.04C424.67,718.97,433.17,721.8,434.31,735.46z
			 M427.87,736.36c-0.49-4.07-1.25-8.16-3.43-11.57c-1.48-2.34-3.68-4.06-6.45-4.7c-1.57-0.38-3.29-0.65-4.87-0.52
			c-2.35,0.2-4.2,0.76-3.95,3.77l2.41,28.91c0.28,3.41,1.78,3.44,4.33,3.23c3.72-0.31,7.53-2.07,9.73-5.17
			C427.54,747.73,428.62,742.25,427.87,736.36z"/>
		<path d="M500.28,740.31c-6.59,2.08-18.08-0.69-21.83-12.59c-6.15-19.52,11.43-24.3,11.43-24.3c7.42-2.5,14.19,0.79,14.19,0.79
			l2.17,8.92l-0.83,0.26c-2.11-5.5-8.48-11.27-15.38-9.15c-10.75,3.33-7.35,16.85-5.52,21.64c6.99,18.44,24.29,10.53,26.2-1.28
			C510.71,724.58,511.89,736.66,500.28,740.31z"/>
		<path d="M560.9,714.04l0.28,0.6l-7.68,3.63c-5.18,2.45-11.24-14.09-18.8-10.81l-1.85,0.87l6.29,13.32c0.59,1.25,1.06,1.88,2,2.45
			l-7.16-0.91l-12.43-26.32c-1.64-3.47-4.74-1.89-5.62-1.47l-0.29-0.6l12.86-6.07c3.93-1.86,12.46-4.87,16.22,3.08
			c2.29,4.86-0.45,8.98-2.56,11.11c-1.03,1.05-2.03,1.81-3.42,2.58c5.97-2.82,11.1,2.9,15.96,7.68
			C557.12,715.6,559.29,714.8,560.9,714.04z M539.15,694.45c-2.21-4.67-5.21-7.55-10.34-5.13c-0.79,0.37-4.02,1.9-2.45,5.23
			l6.23,13.18l4.07-1.92C537.16,705.57,542.88,702.36,539.15,694.45z"/>
		<path d="M600.83,690.26l-23.3,15.12l-0.36-0.56c1.59-1.03,3.43-3.08,1.81-5.57l-15.62-24.08c-1.95-3-4.92-1.2-5.82-0.61
			l-0.36-0.56l22.49-14.59l5.68,7.53l-0.64,0.42c-3.75-3.91-8.92-4.64-13.65-1.58l-2.02,1.31c-2.23,1.45-2.41,3.33-1.3,5.05
			l7.63,11.76l1.93-1.25c3.61-2.52,4.08-6.49,2.25-9.32l0.69-0.45l7.52,11.59l-0.69,0.45c-1.84-2.83-5.81-3.79-9.46-1.61l-1.85,1.2
			l7.77,11.98c1.84,2.83,5.05,0.93,5.14,0.87l2.79-1.81c5.92-3.84,6.02-9.52,3.58-14.03l0.69-0.44L600.83,690.26z"/>
		<path d="M643.71,654.35l0.44,0.5l-9.77,8.49l-0.44-0.5c2.05-1.78,1.8-4.01-0.7-5.49l-8.19-4.27l-9.92,8.63l1.64,4.54
			c2.5,7.25,7.25,5.22,9.07,3.64l0.44,0.5l-9.61,8.36l-0.44-0.5c2.97-2.58,1.45-6.68,0.49-9.58c-0.3-0.89-8.52-24.46-9.01-24.64
			l-3.76-1.68c-0.71-0.27-1.5-0.39-2.27-0.2l6.28-3.77c0,0,29.26,15.1,29.47,15.19C641.45,655.49,642.2,655.66,643.71,654.35z
			 M624.35,652.67l-15.32-8.03l5.79,16.33L624.35,652.67z"/>
		<path d="M655.31,603.69l-0.71,0.81c-3.9-2.7-9.85-4.62-14.02,0.09l-1.97,2.22l25.2,22.32c1.03,0.92,1.71,1.31,2.81,1.46
			l-6.95,1.98l-24.59-21.78l-2.17,2.45c-4.17,4.71-1.24,9.97,1.84,13.66l-0.75,0.84l-7.8-7.93l20.28-22.9L655.31,603.69z"/>
		<path d="M689.66,566.65c8.84,5.83,11.56,17.31,6.47,25.04c-5.1,7.73-16.72,9.75-25.56,3.92c-8.84-5.83-11.56-17.31-6.47-25.04
			C669.19,562.83,680.82,560.82,689.66,566.65z M685.9,571.89c-8.37-5.52-17.58-6.51-21.25-0.96c-3.63,5.51,0.88,13.63,9.25,19.15
			c8.37,5.52,18.04,6.75,21.67,1.24C699.23,585.77,694.27,577.41,685.9,571.89z"/>
		<path d="M727.39,532.83l0.6,0.29l-3.67,7.66c-2.48,5.17-17.62-3.85-21.41,3.47l-0.88,1.85l13.29,6.37c1.25,0.6,2,0.79,3.1,0.63
			l-6.14,3.81l-26.25-12.58c-3.46-1.66-4.87,1.52-5.29,2.4l-0.6-0.29l6.15-12.83c1.88-3.92,6.6-11.64,14.54-7.84
			c4.84,2.32,5.32,7.26,5.02,10.24c-0.14,1.47-0.44,2.69-1.03,4.16c2.85-5.95,10.45-4.75,17.23-4.11
			C725.43,536.43,726.61,534.45,727.39,532.83z M698.14,531.36c-4.66-2.23-8.81-2.58-11.26,2.55c-0.38,0.78-1.92,4.01,1.4,5.61
			l13.15,6.3l1.94-4.06C703.62,541.24,706.03,535.14,698.14,531.36z"/>
	</g>
	<g class="st0">
		<path d="M20.71,378.72l0.61-0.02c0.14,3.61,3.38,4.7,6.57,5.89l29.25,9.63l-23.37,8.35l23.99,7.26l-31,13.53
			c-1.11,0.47-3.6,1.6-3.51,3.8l-0.61,0.02l-0.47-11.81l0.66-0.03c0.17,4.17,3.54,2.82,4.97,2.29l21.77-9.55l-16.96-5.05l-6.57,2.42
			c-0.6,0.26-3.61,1.36-3.51,3.8l-0.61,0.02l-0.47-11.76l0.61-0.02c0.15,3.75,2.43,3.24,4.6,2.4l22.65-7.57l-19.64-6.45
			c-6.66-2.32-7.98,2.29-7.9,4.49l-0.61,0.03L20.71,378.72z"/>
		<path d="M58.91,340.14l-2.73,25.32l-0.61-0.07c0.19-1.73-0.2-4.22-2.91-4.51l-26.16-2.82c-3.26-0.35-3.7,2.81-3.81,3.79
			l-0.61-0.06l2.64-24.44l8.65,0.32l-0.08,0.7c-4.95,0.41-8.46,3.66-9.02,8.79l-0.24,2.19c-0.26,2.42,0.98,3.64,2.84,3.84
			l12.78,1.38l0.23-2.1c0.29-4.03-2.25-6.66-5.33-6.99l0.08-0.75l12.59,1.36l-0.08,0.75c-3.08-0.33-6.06,1.94-6.62,5.8l-0.22,2.01
			l13.01,1.4c3.08,0.33,3.59-3.06,3.6-3.15l0.33-3.03c0.69-6.44-3.28-9.79-7.91-10.67l0.08-0.75L58.91,340.14z"/>
		<path d="M57.7,298.73c4.8,1.1,6.43,4.9,6.93,7.95c0.29,1.9,0.22,3.85-0.21,5.73l-3.31,14.4l-0.59-0.14
			c0.4-1.74,0.71-4.12-2.72-4.91l-25.1-5.78c-3.61-0.83-4.1,1.9-4.39,3.18l-0.59-0.14l3.1-13.49c0,0,2-9.94,9.77-8.15
			c5.58,1.28,6.46,6.88,6.43,9.9C47.77,304.87,50.67,297.11,57.7,298.73z M33.75,311.22l11.75,2.7l0.85-3.7
			c0.44-1.92-0.27-5.74-6.16-7.1c-8.05-1.85-9.11,4.26-9.11,4.26S30.23,310.41,33.75,311.22z M57.35,304.47
			c-8.64-1.99-10.18,5.12-10.36,5.9l-0.85,3.7l12.75,2.94c3.79,0.87,4.27-2.05,4.27-2.05S65.57,306.37,57.35,304.47z"/>
		<path d="M78.15,254.76c0,0,6.52,1.59,2.71,7.88c-2.38,3.67-7.47,4.82-7.47,4.82c4.21,5.88,2.15,15.13-5.15,17.36
			c-11,3.29-13.11-12.33-13.11-12.33c-6.66,2.67-16,0.87-12.25-9.15c0.97-2.59,3.86-6.57,8.11-4.93c4.39,1.65,3.92,9.33,3.92,9.33
			l14.94-4.17c0,0-4.45-5.77-7.93-5.17c-0.99,0.23-2.12,0.71-2.86,2.69l-0.83-0.31l3.87-10.32l0.83,0.31
			c-0.59,1.58-0.5,3.22,1.7,5.9c1.96,2.54,3.27,3.58,5.84,6.75c0,0,6.9-1.02,8.37-3.63c1.84-3.17-0.94-4.31-0.94-4.31L78.15,254.76z
			 M54.36,267.99c0,0-0.42-5.02-4.55-6.57c-3.65-1.37-5.71,0.67-6.29,2.2c0,0-1.55,3.48,3.19,5.25
			C49.26,269.84,54.36,267.99,54.36,267.99z M72.7,267.55l-17.02,4.79c1.3,4.14,4.27,9.72,11.33,7.45
			C75.59,277.1,74.12,270.19,72.7,267.55z"/>
		<path d="M97.78,221.63c0.21,1.39,0.43,5.03-1.49,8.58c-3.7,6.85-12.56,11.5-22.63,6.06c-10.07-5.44-12.65-14.78-8.32-22.78
			c3.41-6.31,9.98-8.89,9.98-8.89l7.2,4.53l-0.4,0.74c-7.26-3.34-13.19-1.53-16.18,4c-3.86,7.14,4.69,14.21,10.3,17.24
			c4.54,2.45,19.46,6.89,20.94-6.38c0.25-1.94-0.96-2.76-1.66-3.14l-5.36-2.9c-1.44-0.78-2.54-0.63-3.4-0.02
			c-0.63,0.57-1.07,1.18-1.78,2.4l-0.82-0.45l1.84-3.11l2.54-4.7c0.58-1.07,1.05-2.04,1.33-2.75l0.83,0.45
			c-0.22,0.41-0.23,0.62-0.33,1c-0.04,0.57,0.23,1.25,1.22,1.78l4.74,2.56L97.78,221.63z"/>
		<path d="M126.66,181.64l0.49,0.36l-4.55,6.32c-3.07,4.26-15.27-6.32-19.88-0.33l-1.1,1.52l10.96,7.9
			c1.03,0.74,1.68,1.04,2.69,1.07l-6.16,2.44l-21.65-15.61c-2.85-2.06-4.64,0.59-5.16,1.31l-0.49-0.36l7.62-10.58
			c2.33-3.23,7.84-9.44,14.39-4.72c4,2.88,3.62,7.41,2.87,10.05c-0.36,1.3-0.83,2.35-1.6,3.59c3.54-4.91,10.2-2.6,16.22-0.92
			C124.31,184.58,125.7,182.97,126.66,181.64z M100.51,175.57c-3.84-2.77-7.53-3.75-10.58,0.47c-0.47,0.65-2.39,3.31,0.35,5.29
			l10.85,7.82l2.41-3.35C103.85,185.38,107.01,180.26,100.51,175.57z"/>
		<path d="M157.6,147.48l0.44,0.42l-8.15,8.63l-0.44-0.42c1.71-1.81,1.28-3.82-1.14-4.95l-7.86-3.16l-8.28,8.77l1.91,3.99
			c2.94,6.39,7.09,4.11,8.6,2.51l0.44,0.42l-8.02,8.49l-0.44-0.42c2.48-2.63,0.72-6.23-0.42-8.78c-0.35-0.79-9.98-21.55-10.45-21.67
			l-3.58-1.19c-0.67-0.18-1.4-0.23-2.09,0.03l5.39-4c0,0,28.06,11.14,28.26,11.2C155.64,148.73,156.34,148.81,157.6,147.48z
			 M139.78,147.69l-14.71-5.95l6.75,14.37L139.78,147.69z"/>
		<path d="M171.76,104.38c6.58,8.01-1.33,14.63-3,16l-3.19,2.62l7.03,8.55c0.8,0.98,1.36,1.43,2.33,1.73l-6.5,0.73l-16.95-20.62
			c-2.11-2.57-4.28-0.85-5.33,0.01l-0.42-0.51l10.69-8.79C159.44,101.65,166.37,97.83,171.76,104.38z M167.5,108.13
			c-3.01-3.66-6.15-7.27-11.3-3.04c-0.54,0.45-1.09,0.89-1.45,1.49c-0.59,0.91-0.45,2.19,0.03,3.13c0.31,0.6,0.76,1.08,1.15,1.55
			l9.29,11.3l3.22-2.65C169.93,118.7,172.56,114.29,167.5,108.13z"/>
		<path d="M205.74,74.54l13.98,22.18c1.55,2.46,3.69,1.72,4.88,0.97l0.33,0.51l-10.12,6.38l-0.33-0.52
			c1.55-0.98,2.79-2.26,1.21-4.76l-6.83-10.83l-13.25,8.36l6.83,10.83c1.58,2.5,3.31,1.91,4.86,0.93l0.33,0.52l-10.2,6.43
			l-0.33-0.52c1.23-0.78,2.82-2.39,1.27-4.85l-13.96-22.14c-1.55-2.46-3.72-1.76-4.95-0.98l-0.32-0.52l10.2-6.43l0.32,0.52
			c-1.55,0.98-2.83,2.28-1.23,4.82l6.83,10.83l13.25-8.36l-6.85-10.87c-1.58-2.5-3.35-1.88-4.9-0.9l-0.32-0.52l10.12-6.38l0.33,0.52
			C205.7,70.51,204.19,72.07,205.74,74.54z"/>
		<path d="M246.97,86.54l0.27,0.55l-10.66,5.23l-0.27-0.55c1.64-0.81,2.95-1.97,1.67-4.58l-12.11-24.68
			c-0.56-1.14-0.99-1.71-1.87-2.22l6.5,0.78l11.78,24C243.56,87.69,245.32,87.34,246.97,86.54z"/>
		<path d="M273.95,76.52c-5.94,2.2-16.59,0.19-20.56-10.55c-6.51-17.6,9.37-22.78,9.37-22.78c6.68-2.62,13.03,0.08,13.03,0.08
			l2.39,8.07l-0.75,0.28c-2.18-4.94-8.28-9.94-14.5-7.69c-9.69,3.54-5.97,15.76-4.08,20.07c7.24,16.58,22.72,8.54,23.94-2.36
			C282.8,61.64,284.42,72.64,273.95,76.52z"/>
		<path d="M350.84,39.92c2.59,17.02-9.14,19.14-15.49,20.1l-12.61,1.92l-0.09-0.6c2.32-0.35,4.03-1.56,3.63-4.21l-3.91-25.69
			c-0.33-2.18-1.59-3.27-4.65-2.8l-0.09-0.6l15.16-2.31c0.88-0.13,1.77-0.22,2.67-0.22C341,25.43,348.95,27.49,350.84,39.92z
			 M345.01,41.14c-0.7-3.69-1.65-7.39-3.86-10.37c-1.5-2.05-3.61-3.48-6.19-3.9c-1.46-0.25-3.05-0.39-4.49-0.17
			c-2.13,0.32-3.79,0.96-3.38,3.69l4,26.29c0.47,3.11,1.84,3.04,4.16,2.69c3.39-0.52,6.76-2.36,8.58-5.34
			C345.41,51.56,346.06,46.48,345.01,41.14z"/>
		<path d="M389.91,55.53l-25.45,0.86l-0.02-0.61c1.73-0.06,4.15-0.8,4.06-3.52l-0.89-26.29c-0.11-3.28-3.3-3.27-4.29-3.23
			l-0.02-0.61l24.56-0.83l0.9,8.6l-0.7,0.02c-1.1-4.84-4.82-7.86-9.97-7.69l-2.2,0.07c-2.44,0.08-3.47,1.48-3.41,3.35l0.44,12.84
			l2.11-0.07c4.03-0.28,6.27-3.17,6.17-6.26l0.75-0.03l0.43,12.65l-0.75,0.03c-0.1-3.09-2.78-5.72-6.67-5.73l-2.02,0.07l0.44,13.08
			c0.1,3.09,3.53,3.12,3.62,3.12l3.05-0.1c6.47-0.22,9.23-4.63,9.44-9.33l0.75-0.03L389.91,55.53z"/>
		<path d="M422.17,56.15c-7.78,3.87-18.11-1.82-18.11-1.82l1.39-8.27l0.65,0.05c-0.31,8.26,7.3,11.48,10.9,10.58
			c3.79-0.98,5.38-6.36,3.52-9.65c-2.12-3.69-6.35-6.18-9.84-8.47c-3.31-2.23-5.46-6.11-5.02-9.98c0.32-2.94,2.96-5.42,5.84-6.23
			c7.21-1.99,15.09,2.62,15.09,2.62l-1.34,8.27l-0.66-0.05c0.08-8.93-8.41-11.79-11.91-10.32c-2.24,1-3.04,4.09-2.52,6.44
			c0.58,2.82,2.88,4.78,5.26,6.29c2.69,1.76,5.33,3.42,7.5,5.85C427.52,46.54,426.48,54.03,422.17,56.15z"/>
		<path d="M450.3,60.8l-0.1,0.6l-11.7-1.98l0.1-0.6c1.8,0.31,3.55,0.12,4.03-2.74l4.59-27.1c0.21-1.25,0.19-1.97-0.22-2.89
			l4.81,4.43l-4.47,26.36C446.87,59.74,448.5,60.49,450.3,60.8z"/>
		<path d="M487.16,68.1c-1.31,0.51-4.81,1.53-8.7,0.45c-7.5-2.09-14-9.7-10.92-20.72c3.08-11.02,11.61-15.61,20.38-13.16
			c6.91,1.93,10.88,7.76,10.88,7.76l-2.82,8.03l-0.81-0.23c1.65-7.82-1.43-13.2-7.48-14.9c-7.82-2.18-12.82,7.72-14.53,13.86
			c-1.39,4.97-2.41,20.51,10.86,19c1.95-0.19,2.48-1.55,2.69-2.32l1.64-5.87c0.44-1.58,0.05-2.62-0.73-3.32
			c-0.69-0.49-1.39-0.78-2.73-1.2l0.25-0.9l3.44,1.11l5.15,1.44c1.17,0.33,2.23,0.57,2.97,0.68l-0.25,0.9
			c-0.45-0.12-0.66-0.09-1.04-0.1c-0.56,0.09-1.16,0.5-1.47,1.59l-1.45,5.2L487.16,68.1z"/>
		<path d="M549.49,58.16l-0.26,0.6c-1.94-0.84-5.87-0.85-7.97,4.02l-10.62,24.59l-1.46-0.63l-7.51-34.06l-8.24,19.08
			c-2.1,4.86,0.6,7.72,2.54,8.56l-0.26,0.6l-11.07-4.78l0.26-0.6c2.07,0.89,5.81,0.98,7.95-3.97l8.57-19.85l-0.4-1.91
			c0,0-0.69-3.36-2.97-4.35l0.32-0.73l7.58,3.27l7.35,31.84l7.48-17.31c2.14-4.95-0.58-7.66-2.64-8.55l0.26-0.6L549.49,58.16z"/>
		<path d="M554.15,96.62c-0.8,1.43-2.69,2.04-4.21,1.2c-1.48-0.82-2-2.78-1.2-4.21c0.84-1.52,2.76-2.06,4.23-1.24
			C554.49,93.21,554.99,95.1,554.15,96.62z"/>
		<path d="M599.91,108.76c-9.77,14.18-19.76,7.69-25.05,4.04l-10.51-7.24l0.35-0.5c1.93,1.33,4.01,1.62,5.53-0.58l14.74-21.4
			c1.25-1.81,1.08-3.47-1.47-5.23l0.35-0.5l12.63,8.7c0.73,0.51,1.44,1.05,2.09,1.67C602.66,91.46,607.04,98.41,599.91,108.76z
			 M594.82,105.65c2.01-3.17,3.86-6.51,4.29-10.2c0.31-2.52-0.25-5.01-1.84-7.08c-0.89-1.18-1.96-2.37-3.15-3.2
			c-1.78-1.22-3.42-1.9-4.99,0.38l-15.09,21.9c-1.78,2.59-0.74,3.48,1.19,4.81c2.82,1.94,6.54,2.91,9.91,1.98
			C587.98,113.52,591.93,110.26,594.82,105.65z"/>
		<path d="M608.15,137.64l-0.39,0.47l-9.07-7.66l0.39-0.47c1.4,1.18,2.99,1.91,4.87-0.31l17.73-21c0.82-0.97,1.16-1.6,1.28-2.6
			l1.89,6.26l-17.25,20.43C605.73,134.98,606.75,136.46,608.15,137.64z"/>
		<path d="M636.22,162.65c-1.39-0.23-4.92-1.12-7.72-4.02c-5.4-5.6-7.15-15.46,1.09-23.4c8.24-7.94,17.92-7.57,24.23-1.02
			c4.98,5.17,5.45,12.21,5.45,12.21l-6.5,5.49l-0.59-0.61c5.38-5.91,5.46-12.11,1.1-16.63c-5.63-5.84-14.96,0.16-19.55,4.58
			c-3.71,3.58-12.48,16.46-0.27,21.89c1.78,0.83,2.92-0.08,3.49-0.63l4.39-4.23c1.18-1.14,1.37-2.23,1.05-3.23
			c-0.35-0.77-0.8-1.37-1.75-2.42l0.68-0.65l2.4,2.7l3.71,3.85c0.85,0.88,1.63,1.62,2.22,2.1l-0.68,0.65
			c-0.32-0.34-0.52-0.41-0.85-0.61c-0.53-0.21-1.26-0.16-2.07,0.63l-3.88,3.74L636.22,162.65z"/>
		<path d="M655.04,188.05l-0.48,0.38l-7.31-9.35l0.48-0.38c1.13,1.44,2.54,2.48,4.83,0.69l21.65-16.93c1-0.78,1.46-1.32,1.78-2.29
			l0.57,6.52l-21.06,16.47C653.21,184.96,653.91,186.61,655.04,188.05z"/>
		<path d="M698.59,210.99l-0.52-0.83c3.38-2.74,6.6-7.48,3.52-12.36l-1.45-2.3l-26.12,16.45c-1.07,0.68-1.59,1.17-2.01,2.09
			l0.04-6.62l25.48-16.05l-1.6-2.54c-3.08-4.88-8.46-3.66-12.5-1.88l-0.55-0.87l8.99-4.83l14.95,23.73L698.59,210.99z"/>
		<path d="M696.75,260.03l-0.55,0.26l-5.11-10.71l0.55-0.26c1.07,2.24,3.1,2.57,5.02,0.72l5.78-6.19l-5.2-10.88l-4.41,0.34
			c-7.01,0.44-6.39,5.13-5.44,7.12l-0.55,0.26l-5.03-10.54l0.55-0.26c1.56,3.26,5.55,2.91,8.34,2.77
			c0.86-0.05,23.69-1.54,23.97-1.94l2.4-2.92c0.41-0.56,0.71-1.22,0.73-1.96l1.79,6.47c0,0-20.5,22.16-20.63,22.33
			C696.28,257.75,695.96,258.38,696.75,260.03z M702.96,243.34l10.85-11.57l-15.84,1.12L702.96,243.34z"/>
		<path d="M718.63,294.21l-10,2.19l-7.94-24.25l0.62-0.2c0.58,1.78,1.33,3.91,4.45,2.89l26.13-8.55c1.2-0.39,1.83-0.75,2.44-1.59
			l-1.58,6.64l-25.46,8.33c-2.36,0.77-2.62,2.69-2.1,4.29c1.09,3.34,3.15,10.08,13.12,9.33L718.63,294.21z"/>
		<path d="M721.69,367.12l-0.61,0.07l-1.35-11.79l0.61-0.07c0.28,2.47,2.09,3.44,4.51,2.32l7.48-3.97l-1.37-11.98l-4.28-1.11
			c-6.78-1.87-7.71,2.77-7.46,4.96l-0.61,0.07l-1.33-11.6l0.61-0.07c0.41,3.59,4.3,4.56,6.99,5.34c0.83,0.24,22.91,6.25,23.3,5.97
			l3.22-1.97c0.57-0.4,1.07-0.93,1.33-1.62l-0.41,6.71c0,0-26.6,14.28-26.77,14.4C722,364.82,721.48,365.3,721.69,367.12z
			 M733.01,353.36l14.02-7.41l-15.34-4.1L733.01,353.36z"/>
		<path d="M721.68,409.8l-0.61-0.01l0.13-7.79c0.09-5.25,16.15-3.52,16.52-11.07l0.03-1.88l-13.51-0.23
			c-1.27-0.02-1.97,0.11-2.83,0.65l3.66-5.52l26.69,0.46c3.52,0.06,3.48-3.13,3.49-4.02l0.61,0.01l-0.23,13.04
			c-0.07,3.99-1.06,12.23-9.12,12.09c-4.92-0.08-7.2-4.02-8.1-6.61c-0.45-1.28-0.66-2.41-0.73-3.86c-0.1,6.05-6.89,7.95-12.79,10.01
			C721.94,406.05,721.71,408.16,721.68,409.8z M746.63,399.87c4.74,0.08,8.33-1.22,8.42-6.42c0.01-0.8,0.07-4.08-3.31-4.14
			l-13.37-0.23l-0.07,4.13C738.29,393.72,738.61,399.73,746.63,399.87z"/>
		<path d="M740.14,452.27l0.14-0.98c4.34,0.08,9.86-1.48,10.65-7.2l0.37-2.7l-30.57-4.22c-1.25-0.17-1.97-0.13-2.88,0.31l4.29-5.04
			l29.83,4.12l0.41-2.97c0.79-5.71-4.12-8.24-8.35-9.49l0.14-1.02l9.99,2.09l-3.83,27.79L740.14,452.27z"/>
	</g>
	<g>
		<rect x="167.59" y="492.26" class="st1" width="441.81" height="9.86"/>
	</g>
	<g>
		<g>
			<path d="M207.97,459.63v0.32c-2.06,0-3.77,3.67-3.77,3.67l-3.16,6.39v6.05c0,0.66,0.07,1.03,0.37,1.47l-2.89-1.86v-4.77
				l-5.17-9.72c-0.07-0.15-0.56-1.22-1.86-1.22v-0.32h6.17v0.32c-0.78,0-2.11,0.02-1.64,1l4.77,8.86l3.11-6.29
				c0,0,1.71-3.57-1.62-3.57v-0.32H207.97z"/>
		</g>
		<g>
			<path d="M249.95,468.35c0,5.07-3.87,9.18-8.3,9.18c-4.43,0-8.3-4.11-8.3-9.18c0-5.07,3.87-9.18,8.3-9.18
				C246.08,459.17,249.95,463.28,249.95,468.35z M246.86,468.22c0-4.8-2.03-8.74-5.21-8.74c-3.16,0-5.21,3.94-5.21,8.74
				c0,4.8,2.06,8.98,5.21,8.98C244.83,477.21,246.86,473.02,246.86,468.22z"/>
		</g>
		<g>
			<path d="M291.82,459.63v0.34c-1.08,0-2.96,0.81-2.96,3.55v6.61c0.02,5.7-1.57,7.71-5.85,7.71c-5.39,0-6.12-3.99-6.12-6.81v-9.94
				c0-0.66-0.07-1.03-0.37-1.47l2.89,1.86v5.8c0,2.57,0.05,5.21,0.15,5.8c0.2,1.37,0.69,2.72,1.98,3.38
				c0.51,0.27,1.05,0.37,1.64,0.37c5.41,0,5.36-4.63,5.36-6.71v-6.63c0-2.79-1.81-3.53-2.96-3.53v-0.34H291.82z"/>
		</g>
		<g>
			<path d="M334.78,477.21v0.32h-4.06c-2.74,0-1.98-8.4-5.92-8.52h-0.98v7.05c0,0.66,0.07,1.03,0.37,1.47l-2.91-1.86v-13.93
				c0-1.84-1.66-1.79-2.13-1.79v-0.32h6.81c2.08,0,6.39,0.44,6.39,4.65c0,2.57-2.03,3.79-3.38,4.28c-0.66,0.25-1.25,0.37-2.01,0.42
				c3.16,0,4.21,3.52,5.34,6.59C332.82,477.11,333.92,477.21,334.78,477.21z M329.37,464.28c0-2.47-0.71-4.33-3.43-4.33
				c-0.42,0-2.13,0-2.13,1.76v6.98h2.15C326.23,468.69,329.37,468.47,329.37,464.28z"/>
		</g>
		<g>
			<path d="M409.15,472.51c0,2.57-1.74,3.84-3.23,4.46c-0.93,0.37-1.93,0.56-2.94,0.56h-7.71v-0.32c0.93,0,2.18-0.12,2.18-1.96
				v-13.44c0-1.93-1.44-1.86-2.13-1.86v-0.32h7.22c0,0,5.29-0.15,5.29,4.01c0,2.99-2.74,4.09-4.28,4.43
				C404.87,468.17,409.15,468.74,409.15,472.51z M400,461.79v6.29h1.98c1.03,0,2.89-0.81,2.89-3.97c0-4.31-3.23-4.14-3.23-4.14
				S400,459.9,400,461.79z M406.19,473c0-4.63-3.79-4.58-4.21-4.58H400v6.83c0,2.03,1.54,1.93,1.54,1.93S406.19,477.4,406.19,473z"
				/>
		</g>
		<g>
			<path d="M452.13,477.21v0.32h-4.06c-2.74,0-1.98-8.4-5.92-8.52h-0.98v7.05c0,0.66,0.07,1.03,0.37,1.47l-2.91-1.86v-13.93
				c0-1.84-1.67-1.79-2.13-1.79v-0.32h6.81c2.08,0,6.39,0.44,6.39,4.65c0,2.57-2.03,3.79-3.38,4.28c-0.66,0.25-1.25,0.37-2.01,0.42
				c3.16,0,4.21,3.52,5.34,6.59C450.18,477.11,451.28,477.21,452.13,477.21z M446.72,464.28c0-2.47-0.71-4.33-3.43-4.33
				c-0.42,0-2.13,0-2.13,1.76v6.98h2.15C443.59,468.69,446.72,468.47,446.72,464.28z"/>
		</g>
		<g>
			<path d="M496.86,477.21v0.32h-6.19v-0.32c1.3,0,1.91-0.88,1.47-2.2l-1.62-4.11h-6.29l-0.83,2.15c-1.37,3.4,0.98,4.16,2.13,4.16
				v0.32h-6.1v-0.32c1.89,0,2.62-1.96,3.18-3.3c0.17-0.42,4.6-11.51,4.48-11.73l-0.83-1.79c-0.17-0.32-0.42-0.61-0.76-0.78
				l3.45,0.61c0,0,5.83,14.64,5.88,14.74C495.69,476.91,495.91,477.21,496.86,477.21z M490.4,470.53l-3.01-7.71l-3.03,7.71H490.4z"
				/>
		</g>
		<g>
			<path d="M541.97,459.63v0.34c-1.1,0-2.99,0.81-2.99,3.57v13.98h-0.83l-10.65-14.76v10.84c0,2.77,1.89,3.57,2.99,3.57v0.34h-6.29
				v-0.34c1.18,0,2.99-0.73,2.99-3.55v-11.28l-0.59-0.83c0,0-1.03-1.47-2.33-1.47v-0.42h4.31l10.11,13.73v-9.84
				c0-2.81-1.86-3.55-3.04-3.55v-0.34H541.97z"/>
		</g>
		<g>
			<path d="M585.51,468.37c0,8.98-6.22,9.16-9.57,9.16h-6.66v-0.32c1.22,0,2.2-0.49,2.2-1.88v-13.56c0-1.15-0.56-1.81-2.18-1.81
				v-0.32h8.01c0.47,0,0.93,0.02,1.4,0.1C581.56,460.12,585.51,461.81,585.51,468.37z M582.4,468.54c-0.07-1.96-0.27-3.94-1.18-5.66
				c-0.61-1.17-1.59-2.08-2.89-2.5c-0.73-0.24-1.54-0.44-2.3-0.44c-1.13,0-2.03,0.2-2.03,1.64v13.88c0,1.64,0.71,1.71,1.93,1.71
				c1.79,0,3.67-0.69,4.85-2.08C581.78,473.95,582.52,471.38,582.4,468.54z"/>
		</g>
	</g>
	<g>
		<g>
			<path d="M261.67,534.88c-3.3,0-8.15-2.91-8.15-8.89c0-9.79,8.71-9.45,8.71-9.45c3.75-0.07,6.37,2.4,6.37,2.4l-0.29,4.38h-0.42
				c-0.17-2.82-2.25-6.36-5.7-6.39c-5.39-0.02-5.78,6.63-5.63,9.08c0.54,9.42,9.57,8.3,12.14,3.18
				C268.69,529.2,267.49,534.88,261.67,534.88z"/>
		</g>
		<g>
			<path d="M311.65,534.32v0.32h-4.06c-2.74,0-1.98-8.4-5.92-8.52h-0.98v7.05c0,0.66,0.07,1.03,0.37,1.47l-2.91-1.86v-13.93
				c0-1.84-1.66-1.79-2.13-1.79v-0.32h6.8c2.08,0,6.39,0.44,6.39,4.65c0,2.57-2.03,3.79-3.38,4.28c-0.66,0.24-1.25,0.37-2.01,0.42
				c3.16,0,4.21,3.52,5.34,6.59C309.69,534.22,310.79,534.32,311.65,534.32z M306.24,521.39c0-2.47-0.71-4.33-3.43-4.33
				c-0.42,0-2.13,0-2.13,1.76v6.98h2.15C303.11,525.8,306.24,525.58,306.24,521.39z"/>
		</g>
		<g>
			<path d="M352.26,534.64h-13.29v-0.32c0.91,0,2.18-0.34,2.18-1.76v-13.73c0-1.71-1.67-1.76-2.18-1.76v-0.32h12.83l0.32,4.51h-0.37
				c-0.49-2.55-2.37-4.19-5.07-4.19h-1.15c-1.27,0-1.84,0.71-1.84,1.69v6.71h1.1c2.1-0.07,3.33-1.54,3.33-3.16h0.39v6.61h-0.39
				c0-1.62-1.35-3.04-3.38-3.11h-1.05v6.83c0,1.62,1.79,1.69,1.84,1.69h1.59c3.38,0,4.9-2.25,5.09-4.7h0.39L352.26,534.64z"/>
		</g>
		<g>
			<path d="M397.35,534.32v0.32h-6.19v-0.32c1.3,0,1.91-0.88,1.47-2.2l-1.62-4.11h-6.29l-0.83,2.15c-1.37,3.4,0.98,4.16,2.13,4.16
				v0.32h-6.1v-0.32c1.88,0,2.62-1.96,3.18-3.3c0.17-0.42,4.6-11.51,4.48-11.73l-0.83-1.79c-0.17-0.32-0.42-0.61-0.76-0.78
				l3.45,0.61c0,0,5.83,14.64,5.88,14.74C396.17,534.03,396.39,534.32,397.35,534.32z M390.89,527.64l-3.01-7.71l-3.03,7.71H390.89z
				"/>
		</g>
		<g>
			<path d="M437.59,522.05h-0.51c-0.27-2.25-1.47-4.99-4.48-4.99h-1.42v16.11c0,0.66,0.07,1.03,0.37,1.47l-2.91-1.86v-15.72h-1.57
				c-3.01,0-3.97,2.72-4.31,4.99h-0.54l0.37-5.31h14.64L437.59,522.05z"/>
		</g>
		<g>
			<path d="M481.51,525.46c0,5.07-3.87,9.18-8.3,9.18s-8.3-4.11-8.3-9.18c0-5.07,3.87-9.18,8.3-9.18S481.51,520.39,481.51,525.46z
				 M478.42,525.33c0-4.8-2.03-8.74-5.21-8.74c-3.16,0-5.21,3.94-5.21,8.74c0,4.8,2.06,8.98,5.21,8.98
				C476.39,534.32,478.42,530.13,478.42,525.33z"/>
		</g>
		<g>
			<path d="M523.49,534.32v0.32h-4.06c-2.74,0-1.98-8.4-5.92-8.52h-0.98v7.05c0,0.66,0.07,1.03,0.37,1.47l-2.91-1.86v-13.93
				c0-1.84-1.66-1.79-2.13-1.79v-0.32h6.81c2.08,0,6.39,0.44,6.39,4.65c0,2.57-2.03,3.79-3.38,4.28c-0.66,0.24-1.25,0.37-2.01,0.42
				c3.16,0,4.21,3.52,5.34,6.59C521.53,534.22,522.63,534.32,523.49,534.32z M518.07,521.39c0-2.47-0.71-4.33-3.43-4.33
				c-0.42,0-2.13,0-2.13,1.76v6.98h2.15C514.94,525.8,518.07,525.58,518.07,521.39z"/>
		</g>
	</g>
	<g>
		<path d="M181.92,426.83v1.81h-33.31v-1.81c5.18,0,9.33-1.43,11.28-4.92c2.85-5.18,4.15-14.39,4.8-22.03h1.43
			c0.78,7.65,2.2,16.98,5.05,22.03C173.11,425.27,177.12,426.83,181.92,426.83z M216.14,392.74h1.04l-14,35.9h-1.68l-33.44-82.82
			c0,0-3.5-9.72-15.29-9.72v-2.2h26.05l26.18,63.12C207.97,403.37,212.9,397.8,216.14,392.74z M261.37,426.83v1.81h-37.33v-1.81
			c4.41,0,11.41-0.39,11.41-9.33v-83.6h24.11v1.81c-9.85,0-10.37,5.7-10.37,9.46v72.06C249.19,426.96,257.22,426.83,261.37,426.83z"
			/>
		<path d="M361.42,426.96v1.68h-32.79v-1.68c6.87,0,10.11-4.67,7.78-11.67l-8.55-21.77h-33.31l-4.41,11.41
			c-7.26,18.01,5.18,22.03,11.28,22.03v1.68h-32.27v-1.68c9.98,0,13.87-10.37,16.85-17.5c0.91-2.2,24.37-60.92,23.72-62.08
			l-4.41-9.46c-0.91-1.69-2.2-3.24-4.02-4.15l18.27,3.24c0,0,30.85,77.51,31.11,78.02C355.2,425.4,356.37,426.96,361.42,426.96z
			 M327.2,391.58l-15.94-40.83l-16.07,40.83H327.2z"/>
		<path class="st1" d="M438.92,400.52h2.72l-1.94,28.12h-70.51l46.01-45.75h-33.7l46.01-47.31h-23.98
			c-12.96,0-22.55,9.72-24.5,26.31h-3.11l1.94-28h69.34l-46.14,47.31l34.48,0.13l-47.18,45.62h26.44
			C431.53,426.96,437.1,412.31,438.92,400.52z"/>
		<path d="M547.27,426.96v1.68h-32.79v-1.68c6.87,0,10.11-4.67,7.78-11.67l-8.55-21.77h-33.31l-4.41,11.41
			c-7.26,18.01,5.18,22.03,11.28,22.03v1.68h-32.27v-1.68c9.98,0,13.87-10.37,16.85-17.5c0.91-2.2,24.37-60.92,23.72-62.08
			l-4.41-9.46c-0.91-1.69-2.2-3.24-4.02-4.15l18.27,3.24c0,0,30.85,77.51,31.11,78.02C541.04,425.4,542.21,426.96,547.27,426.96z
			 M513.05,391.58l-15.94-40.83l-16.07,40.83H513.05z"/>
		<path d="M628.39,400.52l-2.85,28.12h-70.51v-1.81c5.18,0,11.41-0.13,11.41-9.2v-75.95c0-3.5-0.39-5.44-2.07-7.78l16.07,9.85v74.01
			c0,6.87,4.8,9.2,9.46,9.2c9.72,0,29.16,0.39,35.77-26.44H628.39z"/>
	</g>
	<g>
		<g>
			<g>
				<path class="st2" d="M674.7,433.23c2.1-0.52,4.09-1.08,6.15-1.65l0.08-6.32c1.56,1.44,3.12,2.9,4.68,4.38
					c1.87-1.03,3.73-2.07,5.61-3.14l-1.48,6.34c1.82,1.14,3.69,2.31,5.46,3.48l-6.26,1.71l-0.43,6.5c-1.48-1.58-2.96-3.13-4.44-4.66
					c-1.92,0.96-3.84,1.89-5.75,2.81l1.76-6.07L674.7,433.23z"/>
			</g>
		</g>
		<g>
			<g>
				<path class="st2" d="M661.6,485.03l6.35-0.48l1.33-6.17c1.25,1.7,2.5,3.42,3.74,5.15c2.04-0.66,4.09-1.34,6.14-2.04l-2.71,5.93
					l4.71,4.43l-6.38,0.56c-0.49,2.12-1.11,4.19-1.67,6.3c-1.14-1.82-2.3-3.61-3.46-5.39c-2.08,0.58-4.15,1.14-6.21,1.68
					c0.96-1.87,1.99-3.72,2.9-5.62L661.6,485.03z"/>
			</g>
		</g>
		<g>
			<g>
				<path class="st2" d="M639.17,533.53l6.35,0.71c0.82-1.94,1.7-3.85,2.47-5.8c0.96,1.92,1.82,3.81,2.72,5.75
					c2.12-0.27,4.31-0.53,6.41-0.86c-1.22,1.8-2.53,3.55-3.79,5.31l3.79,5.21l-6.39-0.64l-1.31,2.99c-0.44,0.99-0.95,1.95-1.43,2.93
					c-0.8-2-1.54-3.94-2.42-5.94c-2.08,0.23-4.28,0.36-6.4,0.51c0.65-0.83,1.34-1.63,1.96-2.48l1.85-2.55L639.17,533.53z"/>
			</g>
		</g>
		<g>
			<g>
				<path class="st2" d="M608.22,577.1l6.13,1.88l1.78-2.6l1.67-2.69c0.57,2.05,1.18,4.16,1.68,6.21c2.17,0.15,4.25,0.2,6.4,0.27
					l-2.27,2.33l-2.38,2.24l2.76,5.8l-6.18-1.82c-1.24,1.78-2.45,3.6-3.73,5.36c-0.41-2.1-0.89-4.24-1.35-6.33
					c-2.13-0.19-4.2-0.37-6.33-0.62c1.57-1.4,3.08-2.86,4.63-4.29L608.22,577.1z"/>
			</g>
		</g>
		<g>
			<g>
				<path class="st2" d="M569.82,614.29l5.7,2.98c1.51-1.47,2.88-3.09,4.32-4.62c0.19,2.13,0.36,4.26,0.52,6.42
					c2.06,0.49,4.14,0.97,6.24,1.43c-1.8,1.23-3.52,2.53-5.37,3.69l1.64,6.19l-5.76-2.93l-4.66,4.57c-0.04-2.17-0.09-4.33-0.17-6.47
					c-2.05-0.57-4.09-1.16-6.11-1.76l5.35-3.35L569.82,614.29z"/>
			</g>
		</g>
		<g>
			<g>
				<path class="st2" d="M525.28,643.84c1.68,1.35,3.36,2.67,5.04,3.95l5.09-3.75c-0.21,2.12-0.43,4.24-0.68,6.38
					c1.94,0.87,3.9,1.73,5.88,2.58l-5.95,2.65c0.2,2.17,0.36,4.3,0.49,6.42l-5.13-3.96l-5.44,3.59c0.37-2.13,0.71-4.25,1.04-6.37
					c-1.92-0.95-3.82-1.91-5.7-2.88l5.9-2.27L525.28,643.84z"/>
			</g>
		</g>
		<g>
			<g>
				<path class="st2" d="M476.06,664.64l4.21,4.76l5.71-2.69c-0.6,2.03-1.22,4.07-1.86,6.11c1.75,1.22,3.52,2.44,5.32,3.65
					l-6.36,1.44l-0.69,6.44c-1.44-1.57-2.87-3.14-4.3-4.79l-6.03,2.46c0.76-2.01,1.49-4.02,2.21-6.03c-1.71-1.3-3.41-2.61-5.08-3.93
					l6.23-1.07C475.66,668.92,475.87,666.78,476.06,664.64z"/>
			</g>
		</g>
		<g>
			<g>
				<path class="st2" d="M423.82,675.92l3.26,5.5l6.12-1.5c-0.97,1.87-1.95,3.74-2.96,5.61c1.5,1.54,3.02,3.09,4.56,4.63l-6.53,0.16
					l-1.87,6.17l-3.34-5.49l-3.17,0.76c-1.06,0.22-2.13,0.41-3.2,0.62c1.12-1.84,2.22-3.6,3.28-5.5c-1.44-1.53-2.87-3.21-4.27-4.81
					l3.16,0.09l3.15-0.06L423.82,675.92z"/>
			</g>
		</g>
		<g>
			<g>
				<path class="st2" d="M370.38,677.52l2.2,6.05c2.1-0.11,4.21-0.35,6.3-0.52c-1.29,1.7-2.6,3.4-3.94,5.1
					c1.19,1.75,2.41,3.5,3.64,5.26c-2.16-0.29-4.31-0.52-6.45-0.87l-2.96,5.67l-2.28-6.05l-6.52,0.22c1.43-1.63,2.84-3.26,4.23-4.89
					c-1.13-1.81-2.24-3.62-3.33-5.43l6.21,1.14L370.38,677.52z"/>
			</g>
		</g>
		<g>
			<g>
				<path class="st2" d="M317.56,669.36l1.07,6.26l6.28,0.71c-1.58,1.41-3.17,2.82-4.79,4.22c0.85,1.96,1.71,3.93,2.6,5.9
					l-6.17-2.11l-3.97,5.12c-0.4-2.1-0.79-4.18-1.14-6.33l-6.42-1.08c1.7-1.32,3.39-2.64,5.05-3.97c-0.77-2.01-1.52-4.01-2.26-6.01
					l5.86,2.36C314.98,672.8,316.28,671.08,317.56,669.36z"/>
			</g>
		</g>
		<g>
			<g>
				<path class="st2" d="M267.2,651.51l-0.12,6.38l6,1.93c-1.8,1.08-3.63,2.16-5.47,3.22c0.46,2.1,0.95,4.21,1.45,6.32l-5.64-3.28
					l-4.84,4.27l0.04-6.42c-2.09-0.63-4.1-1.44-6.13-2.21c1.91-0.97,3.8-1.94,5.67-2.93c-0.38-2.13-0.74-4.25-1.09-6.36
					c1.76,1.15,3.51,2.34,5.34,3.37L267.2,651.51z"/>
			</g>
		</g>
		<g>
			<g>
				<path class="st2" d="M220.97,624.7l-1.3,6.27c1.86,1,3.65,2.08,5.57,2.97l-3.01,1.15l-2.99,1.06l0.11,3.24l0.19,3.19
					c-1.72-1.31-3.32-2.82-4.96-4.23l-5.53,3.29l1.23-6.32l-2.85-1.59l-1.43-0.8l-1.38-0.86c2.04-0.57,4.1-1.22,6.16-1.9
					c-0.02-2.12-0.01-4.23,0.06-6.39l1.13,1.1l1.18,1.04l2.36,2.09L220.97,624.7z"/>
			</g>
		</g>
		<g>
			<g>
				<path class="st2" d="M180.42,589.87l-2.44,5.94c1.58,1.38,3.3,2.62,4.97,3.9c-2.1,0.39-4.22,0.76-6.35,1.12
					c-0.3,2.09-0.58,4.21-0.84,6.33c-1.41-1.66-2.84-3.28-4.14-5.03l-6.02,2.21l2.38-6l-5-4.2c2.16-0.24,4.31-0.5,6.44-0.77
					c0.38-2.1,0.78-4.18,1.19-6.24l3.85,5L180.42,589.87z"/>
			</g>
		</g>
		<g>
			<g>
				<path class="st2" d="M146.91,548.23l-3.5,5.4l4.22,4.71c-2.13-0.01-4.27-0.03-6.43-0.08c-0.68,2.01-1.35,4.04-2.01,6.09
					l-3.2-5.67l-6.31,1.06l3.46-5.47l-4.1-5.07c2.16,0.16,4.31,0.31,6.45,0.44c0.77-2,1.54-3.97,2.33-5.93l2.82,5.65L146.91,548.23z
					"/>
			</g>
		</g>
		<g>
			<g>
				<path class="st2" d="M121.59,501.16l-4.34,4.63l3.24,5.42c-2.08-0.4-4.17-0.83-6.27-1.27c-1.05,1.86-2.09,3.73-3.12,5.63
					l-2.06-6.18l-6.49-0.08l4.43-4.75l-3.04-5.76c2.08,0.56,4.16,1.11,6.23,1.63c1.13-1.82,2.27-3.63,3.42-5.41l1.68,6.09
					L121.59,501.16z"/>
			</g>
		</g>
		<g>
			<g>
				<path class="st2" d="M105.51,450.2l-5.15,3.75l2.11,5.95c-1.96-0.79-3.92-1.59-5.89-2.42c-1.39,1.63-2.78,3.29-4.15,4.96
					l-0.81-6.47l-6.33-1.29l5.13-3.83c-0.71-2.06-1.26-4.15-1.89-6.23c1.93,0.94,3.85,1.86,5.77,2.76c1.47-1.59,2.93-3.15,4.41-4.69
					c0.17,2.1,0.25,4.21,0.49,6.3L105.51,450.2z"/>
			</g>
		</g>
		<g>
			<g>
				<path class="st2" d="M99.08,397.14l-5.8,2.74c0.29,2.09,0.56,4.17,1,6.23c-1.82-1.13-3.67-2.28-5.41-3.46
					c-1.72,1.35-3.3,2.72-4.93,4.11c0.04-1.09,0.03-2.17,0.12-3.25l0.25-3.25l-5.95-2.43l5.79-2.82l-0.88-6.47
					c1.76,1.28,3.53,2.53,5.29,3.77c1.69-1.29,3.38-2.56,5.07-3.81l-0.51,6.29L99.08,397.14z"/>
			</g>
		</g>
		<g>
			<g>
				<path class="st2" d="M102.3,343.77c-2.1,0.52-4.09,1.08-6.15,1.65l-0.08,6.32c-1.56-1.44-3.12-2.9-4.68-4.38
					c-1.87,1.03-3.73,2.07-5.61,3.14l1.48-6.34c-1.82-1.14-3.69-2.31-5.46-3.48l6.26-1.71l0.43-6.5c1.48,1.58,2.96,3.13,4.44,4.66
					c1.92-0.96,3.84-1.89,5.75-2.81l-1.76,6.07L102.3,343.77z"/>
			</g>
		</g>
		<g>
			<g>
				<path class="st2" d="M115.4,291.97l-6.35,0.48l-1.33,6.17c-1.25-1.7-2.5-3.42-3.74-5.15c-2.04,0.66-4.09,1.34-6.14,2.04
					l2.71-5.93l-4.71-4.43l6.38-0.56c0.49-2.12,1.11-4.19,1.67-6.3c1.14,1.82,2.3,3.61,3.46,5.39c2.08-0.58,4.15-1.14,6.21-1.68
					c-0.96,1.87-1.99,3.72-2.9,5.62L115.4,291.97z"/>
			</g>
		</g>
		<g>
			<g>
				<path class="st2" d="M137.83,243.47l-6.35-0.71c-0.82,1.94-1.7,3.85-2.47,5.8c-0.96-1.92-1.82-3.81-2.72-5.75
					c-2.12,0.27-4.31,0.53-6.41,0.86c1.22-1.8,2.53-3.55,3.79-5.31l-3.79-5.21l6.39,0.64l1.31-2.99c0.44-0.99,0.95-1.95,1.43-2.93
					c0.8,2,1.54,3.94,2.42,5.94c2.08-0.23,4.28-0.36,6.4-0.51c-0.65,0.83-1.34,1.63-1.96,2.48l-1.85,2.55L137.83,243.47z"/>
			</g>
		</g>
		<g>
			<g>
				<path class="st2" d="M168.78,199.9l-6.13-1.88l-1.78,2.6l-1.67,2.69c-0.57-2.05-1.18-4.16-1.68-6.21
					c-2.17-0.15-4.25-0.2-6.4-0.27l2.27-2.33l2.38-2.24l-2.76-5.8l6.18,1.82c1.24-1.78,2.45-3.6,3.73-5.36
					c0.41,2.1,0.89,4.24,1.35,6.33c2.13,0.19,4.2,0.37,6.33,0.62c-1.57,1.4-3.08,2.86-4.63,4.29L168.78,199.9z"/>
			</g>
		</g>
		<g>
			<g>
				<path class="st2" d="M207.18,162.71l-5.7-2.98c-1.51,1.47-2.88,3.09-4.32,4.62c-0.19-2.13-0.36-4.26-0.52-6.42
					c-2.06-0.49-4.14-0.97-6.24-1.43c1.8-1.23,3.52-2.53,5.37-3.69l-1.64-6.19l5.76,2.93l4.66-4.57c0.04,2.17,0.09,4.33,0.17,6.47
					c2.05,0.57,4.09,1.16,6.11,1.76l-5.35,3.35L207.18,162.71z"/>
			</g>
		</g>
		<g>
			<g>
				<path class="st2" d="M251.72,133.16c-1.68-1.35-3.36-2.67-5.04-3.95l-5.09,3.75c0.21-2.12,0.43-4.24,0.68-6.38
					c-1.94-0.87-3.9-1.73-5.88-2.58l5.95-2.65c-0.2-2.17-0.36-4.3-0.49-6.42l5.13,3.96l5.44-3.59c-0.37,2.13-0.71,4.25-1.04,6.37
					c1.92,0.95,3.82,1.91,5.7,2.88l-5.9,2.27L251.72,133.16z"/>
			</g>
		</g>
		<g>
			<g>
				<path class="st2" d="M300.94,112.36l-4.21-4.76l-5.71,2.69c0.6-2.03,1.22-4.07,1.86-6.11c-1.75-1.22-3.52-2.44-5.32-3.65
					l6.36-1.44l0.69-6.44c1.44,1.57,2.87,3.14,4.3,4.79l6.03-2.46c-0.76,2.01-1.49,4.02-2.21,6.03c1.71,1.3,3.41,2.61,5.08,3.93
					l-6.23,1.07C301.34,108.08,301.13,110.22,300.94,112.36z"/>
			</g>
		</g>
		<g>
			<g>
				<path class="st2" d="M353.18,101.08l-3.26-5.5l-6.12,1.5c0.97-1.87,1.95-3.74,2.96-5.61c-1.5-1.54-3.02-3.09-4.56-4.63
					l6.53-0.16l1.87-6.17l3.34,5.49l3.17-0.76c1.06-0.22,2.13-0.41,3.2-0.62c-1.12,1.84-2.22,3.6-3.28,5.5
					c1.44,1.53,2.87,3.21,4.27,4.81l-3.16-0.09l-3.15,0.06L353.18,101.08z"/>
			</g>
		</g>
		<g>
			<g>
				<path class="st2" d="M406.62,99.48l-2.2-6.05c-2.1,0.11-4.21,0.35-6.3,0.52c1.29-1.7,2.6-3.4,3.94-5.1
					c-1.19-1.75-2.41-3.5-3.64-5.26c2.16,0.29,4.31,0.52,6.45,0.87l2.96-5.67l2.28,6.05l6.52-0.22c-1.43,1.63-2.84,3.26-4.23,4.89
					c1.13,1.81,2.24,3.62,3.33,5.43l-6.21-1.14L406.62,99.48z"/>
			</g>
		</g>
		<g>
			<g>
				<path class="st2" d="M459.44,107.64l-1.07-6.26l-6.28-0.71c1.58-1.41,3.17-2.82,4.79-4.22c-0.85-1.96-1.71-3.93-2.6-5.9
					l6.17,2.11l3.97-5.12c0.4,2.1,0.79,4.18,1.14,6.33l6.42,1.08c-1.7,1.32-3.39,2.64-5.05,3.97c0.77,2.01,1.52,4.01,2.26,6.01
					l-5.86-2.36C462.02,104.2,460.72,105.92,459.44,107.64z"/>
			</g>
		</g>
		<g>
			<g>
				<path class="st2" d="M509.8,125.49l0.12-6.38l-6-1.93c1.8-1.08,3.63-2.16,5.47-3.22c-0.46-2.1-0.95-4.21-1.45-6.32l5.64,3.28
					l4.84-4.27l-0.04,6.42c2.09,0.63,4.1,1.44,6.13,2.21c-1.91,0.97-3.8,1.94-5.67,2.93c0.38,2.13,0.74,4.25,1.09,6.36
					c-1.76-1.15-3.51-2.34-5.34-3.37L509.8,125.49z"/>
			</g>
		</g>
		<g>
			<g>
				<path class="st2" d="M556.03,152.3l1.3-6.27c-1.86-1-3.65-2.08-5.57-2.97l3.01-1.15l2.99-1.06l-0.11-3.24l-0.19-3.19
					c1.72,1.31,3.32,2.82,4.96,4.23l5.53-3.29l-1.23,6.32l2.85,1.59l1.43,0.8l1.38,0.86c-2.04,0.57-4.1,1.22-6.16,1.9
					c0.02,2.12,0.01,4.23-0.06,6.39l-1.13-1.1l-1.18-1.04l-2.36-2.09L556.03,152.3z"/>
			</g>
		</g>
		<g>
			<g>
				<path class="st2" d="M596.58,187.13l2.44-5.94c-1.58-1.38-3.3-2.62-4.97-3.9c2.1-0.39,4.22-0.76,6.35-1.12
					c0.3-2.1,0.58-4.21,0.84-6.33c1.41,1.66,2.84,3.28,4.14,5.03l6.02-2.21l-2.38,6l5,4.2c-2.16,0.24-4.31,0.5-6.44,0.77
					c-0.38,2.1-0.78,4.18-1.19,6.24l-3.85-5L596.58,187.13z"/>
			</g>
		</g>
		<g>
			<g>
				<path class="st2" d="M630.09,228.77l3.5-5.4l-4.22-4.71c2.13,0.01,4.27,0.03,6.43,0.08c0.68-2.01,1.35-4.04,2.01-6.09l3.2,5.67
					l6.31-1.06l-3.46,5.47l4.1,5.07c-2.16-0.16-4.31-0.31-6.45-0.44c-0.77,2-1.54,3.97-2.33,5.93l-2.82-5.65L630.09,228.77z"/>
			</g>
		</g>
		<g>
			<g>
				<path class="st2" d="M655.41,275.84l4.34-4.63l-3.24-5.42c2.08,0.4,4.17,0.83,6.27,1.27c1.05-1.86,2.09-3.73,3.12-5.63
					l2.06,6.18l6.49,0.08l-4.43,4.75l3.04,5.76c-2.08-0.56-4.16-1.11-6.23-1.63c-1.13,1.82-2.27,3.63-3.42,5.41l-1.68-6.09
					L655.41,275.84z"/>
			</g>
		</g>
		<g>
			<g>
				<path class="st2" d="M671.49,326.8l5.15-3.75l-2.11-5.95c1.96,0.79,3.92,1.59,5.89,2.42c1.39-1.63,2.78-3.29,4.15-4.96
					l0.81,6.47l6.33,1.29l-5.13,3.83c0.71,2.06,1.26,4.15,1.89,6.23c-1.93-0.94-3.85-1.86-5.77-2.76c-1.47,1.59-2.93,3.15-4.41,4.69
					c-0.17-2.1-0.25-4.21-0.49-6.3L671.49,326.8z"/>
			</g>
		</g>
		<g>
			<g>
				<path class="st2" d="M677.92,379.86l5.8-2.74c-0.29-2.09-0.56-4.17-1-6.23c1.82,1.13,3.67,2.28,5.41,3.46
					c1.72-1.35,3.3-2.72,4.93-4.11c-0.04,1.09-0.03,2.17-0.12,3.25l-0.25,3.25l5.95,2.43l-5.79,2.82l0.88,6.47
					c-1.76-1.28-3.53-2.53-5.29-3.77c-1.69,1.29-3.38,2.56-5.07,3.81l0.51-6.29L677.92,379.86z"/>
			</g>
		</g>
	</g>
	<g>
		<path class="st1" d="M152,395.45c2.45,4.02,4.8,7.21,7.06,9.56s4.35,4.07,6.29,5.13c1.94,1.06,3.7,1.57,5.27,1.52
			s2.89-0.47,3.97-1.27c1.07-0.8,1.86-1.88,2.36-3.24c0.5-1.36,0.65-2.82,0.47-4.38c-0.19-1.56-0.75-3.13-1.7-4.71
			c-0.95-1.58-2.35-2.99-4.19-4.21c-1.73-1.13-3.36-1.93-4.89-2.41c-1.52-0.47-3-0.71-4.44-0.71c-1.66,0-3.24,0.24-4.73,0.71
			c-1.49,0.47-2.88,1-4.18,1.59c-1.29,0.59-2.5,1.16-3.6,1.7c-1.11,0.54-2.14,0.88-3.08,1.02c0.6,0.76,1.23,1.67,1.87,2.74
			s1.27,2.26,1.87,3.6s1.17,2.8,1.72,4.37c0.54,1.57,1.01,3.25,1.41,5.02h-0.1c-0.42-1.87-0.91-3.61-1.47-5.22
			c-0.57-1.61-1.16-3.06-1.79-4.37c-0.62-1.31-1.25-2.47-1.87-3.48c-0.62-1.02-1.21-1.88-1.77-2.6c-0.6,0.07-1.18,0.02-1.73-0.14
			c-0.55-0.16-1.06-0.51-1.52-1.04c-0.23-0.28-0.34-0.55-0.33-0.81s0.17-0.46,0.47-0.57c0.46-0.14,1.13,0.23,2.01,1.11
			c0.51-0.28,1.09-0.65,1.75-1.13c0.66-0.47,1.37-0.97,2.15-1.49c0.77-0.52,1.61-1.03,2.49-1.54c0.89-0.51,1.84-0.95,2.84-1.32
			c1-0.37,2.05-0.62,3.14-0.76c1.09-0.14,2.22-0.12,3.4,0.07c0.21,0.05,0.42,0.09,0.64,0.12c0.22,0.03,0.43,0.09,0.64,0.16
			c2.91,0.81,5.37,1.86,7.37,3.15c2,1.29,3.61,2.7,4.82,4.21c1.21,1.51,2.06,3.07,2.53,4.66c0.47,1.59,0.64,3.1,0.49,4.51
			c-0.15,1.41-0.58,2.66-1.3,3.76c-0.72,1.1-1.66,1.91-2.82,2.43c-1.17,0.52-2.54,0.68-4.11,0.49s-3.28-0.88-5.13-2.06
			s-3.82-2.91-5.91-5.2c-2.09-2.29-4.23-5.27-6.43-8.94L152,395.45z M143.33,394.58c0.23,0.23,0.5,0.32,0.81,0.26
			s0.68-0.2,1.09-0.43c-0.32-0.32-0.61-0.57-0.87-0.73c-0.25-0.16-0.46-0.27-0.62-0.31c-0.32-0.09-0.55,0.01-0.69,0.3
			C142.91,393.95,143.01,394.26,143.33,394.58z"/>
		<path class="st1" d="M158.26,374.86c-0.02-0.07-0.01-0.21,0.05-0.42c0.06-0.21,0.13-0.42,0.23-0.62c0.09-0.21,0.19-0.39,0.29-0.54
			c0.1-0.15,0.19-0.2,0.26-0.16c0.39,0.35,0.91,0.68,1.56,1c0.65,0.32,1.36,0.64,2.15,0.94c0.79,0.3,1.59,0.57,2.43,0.8
			c0.83,0.23,1.63,0.42,2.39,0.57c0.76,0.15,1.46,0.24,2.08,0.26c0.62,0.02,1.1-0.02,1.42-0.14c0.32-0.12,0.45-0.29,0.38-0.52
			c-0.12-0.37-0.35-0.76-0.69-1.16c-0.35-0.4-0.75-0.78-1.21-1.13c-0.46-0.35-0.95-0.66-1.46-0.95c-0.51-0.29-0.99-0.51-1.46-0.68
			v-0.07c0.62,0.21,1.32,0.54,2.08,1c0.76,0.46,1.42,0.99,1.98,1.58c0.55,0.59,0.91,1.2,1.07,1.82c0.16,0.62-0.03,1.21-0.59,1.77
			c-0.25,0.28-0.8,0.42-1.63,0.42c-0.83,0-1.8-0.12-2.91-0.35c0.51,0.51,1.02,1.04,1.53,1.59c0.51,0.55,0.96,1.09,1.35,1.59
			c0.39,0.51,0.71,0.98,0.94,1.4c0.23,0.43,0.32,0.77,0.28,1.02c-0.05,0.28-0.14,0.57-0.28,0.88s-0.33,0.6-0.57,0.87
			s-0.55,0.47-0.94,0.62c-0.38,0.15-0.84,0.2-1.37,0.16c-0.9-0.09-1.86-0.46-2.88-1.09s-1.95-1.43-2.81-2.37
			c-0.85-0.95-1.55-1.98-2.1-3.1c-0.54-1.12-0.79-2.22-0.75-3.31c0.02-0.16,0.05-0.31,0.07-0.45c0.02-0.14,0.06-0.3,0.1-0.49
			c-0.18-0.12-0.36-0.24-0.54-0.38S158.4,374.97,158.26,374.86z M170.64,383.83c0.07-0.14,0.01-0.4-0.17-0.78
			c-0.18-0.38-0.47-0.83-0.85-1.33c-0.38-0.51-0.84-1.07-1.39-1.68c-0.54-0.61-1.14-1.22-1.79-1.82c-1.22-0.23-2.48-0.57-3.78-1
			c-1.29-0.44-2.4-0.95-3.33-1.52c0,0.05-0.01,0.1-0.03,0.17c-0.02,0.07-0.03,0.13-0.03,0.17c-0.02,0.69,0.21,1.42,0.71,2.17
			c0.5,0.75,1.14,1.47,1.92,2.15c0.79,0.68,1.65,1.31,2.6,1.89c0.95,0.58,1.84,1.04,2.69,1.39c0.84,0.35,1.59,0.55,2.24,0.61
			C170.07,384.29,170.48,384.16,170.64,383.83z"/>
		<path class="st1" d="M158.33,362.66c-0.02-0.02-0.01-0.14,0.03-0.36s0.12-0.44,0.23-0.68c0.1-0.23,0.22-0.44,0.36-0.64
			c0.14-0.2,0.27-0.29,0.38-0.29c0.14,0.28,0.5,0.61,1.09,1c0.59,0.39,1.29,0.78,2.1,1.16c0.81,0.38,1.68,0.73,2.6,1.04
			c0.92,0.31,1.77,0.53,2.55,0.66c0.77,0.13,1.43,0.14,1.96,0.03c0.53-0.1,0.82-0.39,0.87-0.85c0.05-0.44-0.06-0.88-0.33-1.33
			c-0.27-0.45-0.59-0.87-0.99-1.25c-0.39-0.38-0.81-0.73-1.27-1.04c-0.45-0.31-0.84-0.56-1.16-0.74l0.1-0.07
			c0.62,0.37,1.21,0.77,1.77,1.21c0.55,0.44,1.02,0.92,1.4,1.44c0.38,0.52,0.65,1.09,0.81,1.7c0.16,0.61,0.15,1.26-0.03,1.96
			c-0.14,0.53-0.42,0.91-0.85,1.13c-0.43,0.22-0.95,0.32-1.58,0.31c-0.62-0.01-1.31-0.11-2.06-0.29c-0.75-0.18-1.51-0.43-2.27-0.74
			c-0.76-0.31-1.51-0.65-2.24-1c-0.73-0.36-1.37-0.72-1.92-1.09c0.76,0.67,1.24,1.29,1.44,1.85c0.2,0.57,0.2,1.06,0.02,1.47
			s-0.5,0.75-0.95,1c-0.45,0.25-0.94,0.41-1.47,0.45c0.74,0.28,1.54,0.59,2.41,0.95c0.87,0.36,1.69,0.71,2.48,1.06
			c0.79,0.35,1.47,0.65,2.04,0.92c0.58,0.27,0.94,0.43,1.07,0.5l-0.07,0.07c-0.16-0.09-0.54-0.28-1.14-0.55
			c-0.6-0.28-1.31-0.59-2.11-0.94c-0.81-0.35-1.65-0.7-2.53-1.06c-0.88-0.36-1.67-0.68-2.39-0.95c-0.21,0-0.37-0.02-0.49-0.07
			c-0.37-0.05-0.75-0.14-1.14-0.28c-0.39-0.14-0.75-0.31-1.07-0.52c-0.05-0.07-0.07-0.19-0.07-0.36c0-0.17,0.02-0.35,0.07-0.52
			c0.05-0.17,0.12-0.33,0.21-0.49c0.09-0.15,0.2-0.23,0.31-0.23c0.19,0.14,0.49,0.28,0.9,0.42c0.42,0.14,0.89,0.14,1.42,0
			c0.21-0.05,0.45-0.15,0.73-0.31s0.49-0.37,0.64-0.62c0.15-0.25,0.19-0.57,0.12-0.94c-0.07-0.37-0.35-0.79-0.83-1.25
			c-0.3-0.21-0.57-0.4-0.8-0.59C158.56,362.85,158.44,362.75,158.33,362.66z"/>
		<path class="st1" d="M158.26,348.14c-0.02-0.07-0.01-0.21,0.05-0.42c0.06-0.21,0.13-0.42,0.23-0.62c0.09-0.21,0.19-0.39,0.29-0.54
			c0.1-0.15,0.19-0.2,0.26-0.16c0.39,0.35,0.91,0.68,1.56,1c0.65,0.32,1.36,0.64,2.15,0.94c0.79,0.3,1.59,0.57,2.43,0.8
			c0.83,0.23,1.63,0.42,2.39,0.57c0.76,0.15,1.46,0.24,2.08,0.26c0.62,0.02,1.1-0.02,1.42-0.14c0.32-0.12,0.45-0.29,0.38-0.52
			c-0.12-0.37-0.35-0.76-0.69-1.16c-0.35-0.4-0.75-0.78-1.21-1.13c-0.46-0.35-0.95-0.66-1.46-0.95c-0.51-0.29-0.99-0.51-1.46-0.68
			v-0.07c0.62,0.21,1.32,0.54,2.08,1c0.76,0.46,1.42,0.99,1.98,1.58c0.56,0.59,0.91,1.2,1.07,1.82c0.16,0.62-0.03,1.21-0.59,1.77
			c-0.25,0.28-0.8,0.42-1.63,0.42c-0.83,0-1.8-0.12-2.91-0.35c0.51,0.51,1.02,1.04,1.53,1.59c0.51,0.55,0.96,1.09,1.35,1.59
			c0.39,0.51,0.71,0.98,0.94,1.4c0.23,0.43,0.32,0.77,0.28,1.02c-0.05,0.28-0.14,0.57-0.28,0.88s-0.33,0.6-0.57,0.87
			s-0.55,0.47-0.94,0.62c-0.38,0.15-0.84,0.2-1.37,0.16c-0.9-0.09-1.86-0.46-2.88-1.09c-1.02-0.64-1.95-1.43-2.81-2.37
			c-0.85-0.95-1.55-1.98-2.1-3.1c-0.54-1.12-0.79-2.22-0.75-3.31c0.02-0.16,0.05-0.31,0.07-0.45c0.02-0.14,0.06-0.3,0.1-0.49
			c-0.18-0.12-0.36-0.24-0.54-0.38C158.55,348.38,158.39,348.25,158.26,348.14z M170.63,357.11c0.07-0.14,0.01-0.4-0.17-0.78
			c-0.18-0.38-0.47-0.83-0.85-1.33s-0.84-1.07-1.39-1.68c-0.54-0.61-1.14-1.22-1.79-1.82c-1.22-0.23-2.48-0.57-3.78-1
			c-1.29-0.44-2.4-0.95-3.33-1.52c0,0.05-0.01,0.1-0.03,0.17c-0.02,0.07-0.03,0.13-0.03,0.17c-0.02,0.69,0.21,1.42,0.71,2.17
			c0.5,0.75,1.14,1.47,1.92,2.15c0.79,0.68,1.65,1.31,2.6,1.89c0.95,0.58,1.84,1.04,2.69,1.39c0.84,0.35,1.59,0.55,2.24,0.61
			C170.06,357.57,170.47,357.44,170.63,357.11z"/>
	</g>
</g>
<g>
</g>
<g>
</g>
<g>
</g>
<g>
</g>
<g>
</g>
<g>
</g>
<g>
</g>
<g>
</g>
<g>
</g>
<g>
</g>
<g>
</g>
<g>
</g>
<g>
</g>
<g>
</g>
<g>
</g>
</svg>
